<svg width="110" height="24" viewBox="0 0 110 24" fill="none" xmlns="http://www.w3.org/2000/svg">
<path d="M0 7.53911H2.37072V11.3364L2.22594 12.5728H2.37072C2.58788 12.2077 2.92569 11.8957 3.38415 11.6367C3.84261 11.3776 4.40965 11.2481 5.08528 11.2481C5.65232 11.2481 6.1892 11.3659 6.69591 11.6013C7.2147 11.8251 7.66712 12.143 8.05319 12.5551C8.45133 12.9554 8.76501 13.4382 8.99424 14.0034C9.22347 14.5685 9.33809 15.1867 9.33809 15.8579C9.33809 16.529 9.22347 17.1472 8.99424 17.7124C8.76501 18.2775 8.45133 18.7662 8.05319 19.1783C7.66712 19.5786 7.2147 19.8966 6.69591 20.132C6.1892 20.3558 5.65232 20.4676 5.08528 20.4676C4.40965 20.4676 3.84261 20.3381 3.38415 20.0791C2.92569 19.82 2.58788 19.508 2.37072 19.143H2.22594V20.185H0V7.53911ZM4.59665 18.3305C4.91034 18.3305 5.20592 18.2717 5.48341 18.1539C5.77296 18.0362 6.02632 17.8713 6.24349 17.6594C6.46065 17.4474 6.63559 17.1884 6.7683 16.8823C6.90101 16.5761 6.96737 16.2347 6.96737 15.8579C6.96737 15.4811 6.90101 15.1396 6.7683 14.8335C6.63559 14.5273 6.46065 14.2683 6.24349 14.0564C6.02632 13.8444 5.77296 13.6796 5.48341 13.5618C5.20592 13.4441 4.91034 13.3852 4.59665 13.3852C4.28297 13.3852 3.98135 13.4441 3.6918 13.5618C3.41431 13.6678 3.16699 13.8267 2.94982 14.0387C2.73266 14.2506 2.55772 14.5097 2.42501 14.8158C2.29229 15.122 2.22594 15.4693 2.22594 15.8579C2.22594 16.2464 2.29229 16.5938 2.42501 16.8999C2.55772 17.2061 2.73266 17.4651 2.94982 17.677C3.16699 17.889 3.41431 18.0538 3.6918 18.1716C3.98135 18.2775 4.28297 18.3305 4.59665 18.3305Z" fill="black"/>
<path d="M13.2847 19.7611L9.55666 11.5307H12.2531L14.4972 16.7763H14.6238L16.7774 11.5307H19.4196L13.8638 24H11.3121L13.2847 19.7611Z" fill="black"/>
<path d="M26.1322 21.9359V0H30.2445V21.9359H26.1322ZM45.0351 19.9751H44.784C44.3027 20.7309 43.6539 21.3334 42.8377 21.7827C42.0215 22.2116 41.0902 22.4261 40.0439 22.4261C38.0976 22.4261 36.6431 21.844 35.6804 20.6798C34.7387 19.5156 34.2678 17.9633 34.2678 16.023V6.9239H38.3801V15.5328C38.3801 16.6153 38.6208 17.4221 39.1021 17.9531C39.6044 18.4637 40.3264 18.719 41.2681 18.719C41.8332 18.719 42.325 18.6067 42.7435 18.382C43.183 18.1369 43.5493 17.8204 43.8422 17.4323C44.1562 17.0238 44.3864 16.554 44.5329 16.023C44.7003 15.4715 44.784 14.8895 44.784 14.2767V6.9239H48.8963V21.9359H45.0351V19.9751ZM56.9078 8.88465H57.159C57.6403 8.12895 58.2891 7.53664 59.1052 7.10772C59.9214 6.65838 60.8527 6.43371 61.8991 6.43371C62.8618 6.43371 63.7093 6.5869 64.4418 6.89326C65.1743 7.19963 65.7707 7.63876 66.2311 8.21064C66.7125 8.76211 67.0682 9.43611 67.2984 10.2327C67.5496 11.0088 67.6751 11.8768 67.6751 12.8368V21.9359H63.5629V13.327C63.5629 12.2445 63.3117 11.4479 62.8095 10.9373C62.3281 10.4063 61.6166 10.1408 60.6748 10.1408C60.1098 10.1408 59.6075 10.2633 59.168 10.5084C58.7495 10.7331 58.3832 11.0496 58.0693 11.4581C57.7763 11.8462 57.5461 12.316 57.3787 12.8674C57.2322 13.3985 57.159 13.9703 57.159 14.5831V21.9359H53.0467V6.9239H56.9078V8.88465ZM81.0272 20.3428H80.7761C80.2948 20.9147 79.7088 21.4049 79.0182 21.8134C78.3485 22.2218 77.48 22.4261 76.4127 22.4261C75.6174 22.4261 74.864 22.2933 74.1525 22.0278C73.4619 21.7827 72.855 21.4355 72.3318 20.9862C71.8086 20.5368 71.4005 19.9956 71.1075 19.3624C70.8145 18.7293 70.668 18.0348 70.668 17.2791C70.668 16.503 70.825 15.8086 71.1389 15.1958C71.4528 14.5627 71.8923 14.0214 72.4573 13.5721C73.0224 13.1227 73.6816 12.7857 74.435 12.5611C75.2093 12.316 76.0464 12.1934 76.9463 12.1934C77.9509 12.1934 78.7775 12.2751 79.4263 12.4385C80.075 12.5815 80.6087 12.7347 81.0272 12.8981V12.4385C81.0272 11.642 80.7029 10.9884 80.0541 10.4778C79.4053 9.94672 78.5996 9.68121 77.6369 9.68121C76.2139 9.68121 75.0105 10.2633 74.0269 11.4275L71.0447 9.43611C72.6771 7.43451 74.9059 6.43371 77.7311 6.43371C80.1169 6.43371 81.9376 6.98517 83.1933 8.0881C84.4489 9.17059 85.0768 10.7841 85.0768 12.9287V21.9359H81.0272V20.3428ZM81.0272 15.8392C80.5459 15.6145 80.0436 15.4409 79.5204 15.3184C79.0182 15.1754 78.4636 15.1039 77.8567 15.1039C76.8731 15.1039 76.1092 15.3184 75.5651 15.7473C75.0419 16.1558 74.7803 16.6664 74.7803 17.2791C74.7803 17.8919 75.0314 18.382 75.5337 18.7497C76.0569 19.1173 76.6534 19.3011 77.323 19.3011C77.8672 19.3011 78.3694 19.2092 78.8298 19.0254C79.2902 18.8212 79.6774 18.5659 79.9913 18.2595C80.3262 17.9327 80.5773 17.5651 80.7447 17.1566C80.9331 16.7277 81.0272 16.2885 81.0272 15.8392ZM91.2707 5.17761C90.9149 5.17761 90.5696 5.11634 90.2347 4.99379C89.9208 4.85082 89.6383 4.667 89.3872 4.44233C89.157 4.19723 88.9686 3.9215 88.8221 3.61514C88.6966 3.30877 88.6338 2.97176 88.6338 2.60412C88.6338 2.23648 88.6966 1.89948 88.8221 1.59311C88.9686 1.28674 89.157 1.02123 89.3872 0.796557C89.6383 0.551463 89.9208 0.367643 90.2347 0.245096C90.5696 0.102124 90.9149 0.0306387 91.2707 0.0306387C92.0031 0.0306387 92.631 0.285945 93.1542 0.796557C93.6774 1.28674 93.939 1.88927 93.939 2.60412C93.939 3.31898 93.6774 3.93172 93.1542 4.44233C92.631 4.93252 92.0031 5.17761 91.2707 5.17761ZM89.2253 21.9359L89.2302 7.35282H93.3425L93.3376 21.9359H89.2253ZM96.9725 18.6271L104.82 10.3552H97.2236V6.9239H109.874V10.2327L102.027 18.5046H110V21.9359H96.9725V18.6271Z" fill="black"/>
<path d="M91.2955 5.20825C92.7692 5.20825 93.9638 4.04234 93.9638 2.60412C93.9638 1.16591 92.7692 9.95801e-07 91.2955 9.95801e-07C89.8219 9.95801e-07 88.6273 1.16591 88.6273 2.60412C88.6273 4.04234 89.8219 5.20825 91.2955 5.20825Z" fill="#000DFF"/>
<path d="M91.2955 5.20825C92.7692 5.20825 93.9638 4.04234 93.9638 2.60412C93.9638 1.16591 92.7692 9.95801e-07 91.2955 9.95801e-07C89.8219 9.95801e-07 88.6273 1.16591 88.6273 2.60412C88.6273 4.04234 89.8219 5.20825 91.2955 5.20825Z" fill="url(#paint0_linear_5_625)"/>
<defs>
<linearGradient id="paint0_linear_5_625" x1="93.1451" y1="-8.11708e-07" x2="89.5811" y2="5.29921" gradientUnits="userSpaceOnUse">
<stop stop-color="#069EFF"/>
<stop offset="1" stop-color="#0324FF"/>
</linearGradient>
</defs>
</svg>
