<svg width="228" height="40" viewBox="0 0 228 40" fill="none" xmlns="http://www.w3.org/2000/svg">
<path d="M223.173 39.0634C221.826 39.0634 220.665 38.608 219.693 37.6973C218.757 36.7501 218.289 35.6208 218.289 34.3093C218.289 32.9978 218.757 31.8867 219.693 30.976C220.665 30.0652 221.826 29.6099 223.173 29.6099C224.52 29.6099 225.661 30.0652 226.597 30.976C227.532 31.8867 228 32.9978 228 34.3093C228 35.6208 227.532 36.7501 226.597 37.6973C225.661 38.608 224.52 39.0634 223.173 39.0634Z" fill="#FFC309"/>
<path d="M12.6857 40C10.8895 40 9.2804 39.7814 7.8584 39.3443C6.47383 38.9071 5.25765 38.3424 4.20986 37.6503C3.19949 36.9217 2.33881 36.102 1.62781 35.1913C0.916814 34.2441 0.37421 33.2969 0 32.3497L6.56738 29.6175C7.20354 31.0018 8.04551 32.0401 9.0933 32.7322C10.1785 33.388 11.376 33.7158 12.6857 33.7158C14.0329 33.7158 15.0994 33.4791 15.8852 33.0055C16.671 32.5319 17.064 31.9672 17.064 31.3115C17.064 30.5829 16.7272 30 16.0536 29.5628C15.4174 29.0893 14.2948 28.6703 12.6857 28.306L8.81264 27.4863C7.95196 27.3042 7.05385 27.0127 6.11833 26.612C5.22022 26.2113 4.39696 25.7013 3.64854 25.082C2.90013 24.4627 2.28268 23.7158 1.79621 22.8415C1.30973 21.9672 1.0665 20.9472 1.0665 19.7814C1.0665 18.4699 1.34715 17.3042 1.90847 16.2842C2.5072 15.2641 3.31176 14.408 4.32212 13.7158C5.33249 12.9872 6.51125 12.4408 7.8584 12.0765C9.24298 11.6758 10.7211 11.4754 12.2928 11.4754C14.9123 11.4754 17.2511 11.9854 19.3092 13.0055C21.3674 13.9891 22.8829 15.5738 23.8559 17.7596L17.513 20.2732C16.9891 19.2168 16.222 18.4517 15.2116 17.9781C14.2013 17.5046 13.1909 17.2678 12.1805 17.2678C11.1327 17.2678 10.2159 17.4863 9.43008 17.9235C8.64424 18.3242 8.25132 18.8525 8.25132 19.5082C8.25132 20.1275 8.5694 20.6193 9.20556 20.9836C9.87914 21.3479 10.7772 21.6758 11.8999 21.9672L16.1097 22.9508C18.9163 23.6066 20.9932 24.663 22.3403 26.1202C23.7249 27.541 24.4172 29.235 24.4172 31.2022C24.4172 32.3679 24.1365 33.4791 23.5752 34.5355C23.0139 35.592 22.2093 36.5392 21.1616 37.3771C20.1512 38.1785 18.9163 38.816 17.4569 39.2896C16.0349 39.7632 14.4445 40 12.6857 40Z" fill="black"/>
<path d="M55.3053 32.2951C54.1078 34.5537 52.4239 36.4117 50.2534 37.8689C48.1204 39.2896 45.4448 40 42.2266 40C40.0936 40 38.129 39.6539 36.3328 38.9617C34.574 38.2332 33.0398 37.2313 31.7301 35.9563C30.4577 34.6812 29.4474 33.1876 28.699 31.4754C27.988 29.7268 27.6325 27.8142 27.6325 25.7377C27.6325 23.6612 27.988 21.7486 28.699 20C29.4474 18.2514 30.4577 16.7577 31.7301 15.5191C33.0398 14.2441 34.574 13.2605 36.3328 12.5683C38.129 11.8397 40.0936 11.4754 42.2266 11.4754C45.4074 11.4754 48.083 12.1858 50.2534 13.6066C52.4239 15.0273 54.0142 16.867 55.0246 19.1257L48.2888 21.8579C47.6527 20.6193 46.8294 19.6903 45.8191 19.071C44.8461 18.4153 43.6112 18.0874 42.1144 18.0874C41.1414 18.0874 40.2246 18.2696 39.3639 18.6339C38.5033 18.9982 37.7361 19.5082 37.0625 20.1639C36.4264 20.8197 35.9212 21.6211 35.547 22.5683C35.1728 23.5155 34.9857 24.5719 34.9857 25.7377C34.9857 26.9035 35.1728 27.9599 35.547 28.9071C35.9212 29.8543 36.4264 30.6557 37.0625 31.3115C37.7361 31.9672 38.5033 32.4772 39.3639 32.8415C40.2246 33.2058 41.1414 33.388 42.1144 33.388C43.6486 33.388 44.9397 33.0601 45.9874 32.4044C47.0727 31.7122 47.9333 30.7286 48.5695 29.4536L55.3053 32.2951Z" fill="black"/>
<path d="M59.7914 3.45853H67.1446V19.3055C67.9305 18.0305 69.0531 16.9922 70.5125 16.1908C72.0093 15.3529 73.6746 14.9339 75.5082 14.9339C79.0632 14.9339 81.6827 15.954 83.3666 17.9941C85.088 20.0341 85.9487 22.821 85.9487 26.3547V39.1257H78.5954V27.229C78.5954 25.3711 78.1464 23.9686 77.2483 23.0214C76.3502 22.0378 75.0966 21.546 73.4875 21.546C72.4771 21.546 71.579 21.7645 70.7932 22.2017C70.0073 22.6024 69.3337 23.1671 68.7724 23.8957C68.2485 24.6243 67.8369 25.4804 67.5375 26.464C67.2756 27.4112 67.1446 28.4312 67.1446 29.5241V39.1257H59.7914V3.45853Z" fill="black"/>
<path d="M105.046 11.4754C107.179 11.4754 109.125 11.8397 110.883 12.5683C112.68 13.2605 114.214 14.2441 115.486 15.5191C116.796 16.7577 117.806 18.2514 118.517 20C119.266 21.7486 119.64 23.6612 119.64 25.7377C119.64 27.8142 119.266 29.7268 118.517 31.4754C117.806 33.224 116.796 34.7359 115.486 36.0109C114.214 37.2495 112.68 38.2332 110.883 38.9617C109.125 39.6539 107.179 40 105.046 40C102.913 40 100.948 39.6539 99.1518 38.9617C97.393 38.2332 95.8588 37.2495 94.549 36.0109C93.2767 34.7359 92.2664 33.224 91.5179 31.4754C90.8069 29.7268 90.4514 27.8142 90.4514 25.7377C90.4514 23.6612 90.8069 21.7486 91.5179 20C92.2664 18.2514 93.2767 16.7577 94.549 15.5191C95.8588 14.2441 97.393 13.2605 99.1518 12.5683C100.948 11.8397 102.913 11.4754 105.046 11.4754ZM105.046 33.388C105.981 33.388 106.879 33.224 107.74 32.8962C108.638 32.5319 109.424 32.0219 110.097 31.3661C110.771 30.7104 111.295 29.9089 111.669 28.9617C112.081 28.0146 112.287 26.9399 112.287 25.7377C112.287 24.5355 112.081 23.4608 111.669 22.5137C111.295 21.5665 110.771 20.765 110.097 20.1093C109.424 19.4536 108.638 18.9617 107.74 18.6339C106.879 18.2696 105.981 18.0874 105.046 18.0874C104.073 18.0874 103.156 18.2696 102.295 18.6339C101.434 18.9617 100.667 19.4536 99.9938 20.1093C99.3202 20.765 98.7776 21.5665 98.366 22.5137C97.9918 23.4608 97.8047 24.5355 97.8047 25.7377C97.8047 26.9399 97.9918 28.0146 98.366 28.9617C98.7776 29.9089 99.3202 30.7104 99.9938 31.3661C100.667 32.0219 101.434 32.5319 102.295 32.8962C103.156 33.224 104.073 33.388 105.046 33.388Z" fill="black"/>
<path d="M137.387 11.4754C139.52 11.4754 141.466 11.8397 143.225 12.5683C145.021 13.2605 146.555 14.2441 147.827 15.5191C149.137 16.7577 150.148 18.2514 150.859 20C151.607 21.7486 151.981 23.6612 151.981 25.7377C151.981 27.8142 151.607 29.7268 150.859 31.4754C150.148 33.224 149.137 34.7359 147.827 36.0109C146.555 37.2495 145.021 38.2332 143.225 38.9617C141.466 39.6539 139.52 40 137.387 40C135.254 40 133.289 39.6539 131.493 38.9617C129.734 38.2332 128.2 37.2495 126.89 36.0109C125.618 34.7359 124.608 33.224 123.859 31.4754C123.148 29.7268 122.793 27.8142 122.793 25.7377C122.793 23.6612 123.148 21.7486 123.859 20C124.608 18.2514 125.618 16.7577 126.89 15.5191C128.2 14.2441 129.734 13.2605 131.493 12.5683C133.289 11.8397 135.254 11.4754 137.387 11.4754ZM137.387 33.388C138.323 33.388 139.221 33.224 140.081 32.8962C140.979 32.5319 141.765 32.0219 142.439 31.3661C143.112 30.7104 143.636 29.9089 144.011 28.9617C144.422 28.0146 144.628 26.9399 144.628 25.7377C144.628 24.5355 144.422 23.4608 144.011 22.5137C143.636 21.5665 143.112 20.765 142.439 20.1093C141.765 19.4536 140.979 18.9617 140.081 18.6339C139.221 18.2696 138.323 18.0874 137.387 18.0874C136.414 18.0874 135.497 18.2696 134.637 18.6339C133.776 18.9617 133.009 19.4536 132.335 20.1093C131.662 20.765 131.119 21.5665 130.707 22.5137C130.333 23.4608 130.146 24.5355 130.146 25.7377C130.146 26.9399 130.333 28.0146 130.707 28.9617C131.119 29.9089 131.662 30.7104 132.335 31.3661C133.009 32.0219 133.776 32.5319 134.637 32.8962C135.497 33.224 136.414 33.388 137.387 33.388Z" fill="black"/>
<path d="M156.432 39.1257V0H163.785V39.1257H156.432Z" fill="black"/>
<path d="M195.852 32.6776C194.58 34.8634 192.858 36.6302 190.688 37.9781C188.555 39.326 185.935 40 182.829 40C180.734 40 178.788 39.6539 176.992 38.9617C175.233 38.2332 173.699 37.2313 172.389 35.9563C171.079 34.6812 170.05 33.1876 169.302 31.4754C168.591 29.7268 168.235 27.8142 168.235 25.7377C168.235 23.8069 168.591 21.9854 169.302 20.2732C170.013 18.5246 171.004 17.0128 172.277 15.7377C173.549 14.4262 175.046 13.388 176.767 12.623C178.526 11.8579 180.453 11.4754 182.549 11.4754C184.757 11.4754 186.721 11.8397 188.442 12.5683C190.164 13.2605 191.605 14.2441 192.765 15.5191C193.925 16.7577 194.804 18.2332 195.403 19.9454C196.002 21.6576 196.301 23.5155 196.301 25.5191C196.301 25.7741 196.301 25.9927 196.301 26.1749C196.263 26.3934 196.245 26.5938 196.245 26.776C196.207 26.9581 196.189 27.1585 196.189 27.3771H175.476C175.626 28.4699 175.925 29.4171 176.374 30.2186C176.861 30.9836 177.441 31.6393 178.114 32.1858C178.825 32.6958 179.592 33.0783 180.416 33.3333C181.239 33.5519 182.081 33.6612 182.942 33.6612C184.626 33.6612 186.01 33.2969 187.095 32.5683C188.218 31.8033 189.097 30.8561 189.734 29.7268L195.852 32.6776ZM189.172 22.2951C189.135 21.8215 188.966 21.2933 188.667 20.7104C188.405 20.1275 187.993 19.5811 187.432 19.071C186.908 18.561 186.235 18.1421 185.411 17.8142C184.626 17.4863 183.671 17.3224 182.549 17.3224C180.977 17.3224 179.592 17.7596 178.395 18.6339C177.197 19.5082 176.356 20.7286 175.869 22.2951H189.172Z" fill="black"/>
<path d="M200.997 12.3497H207.901V16.0656H208.35C208.687 15.4098 209.136 14.8087 209.697 14.2623C210.259 13.7158 210.876 13.2423 211.55 12.8415C212.261 12.4408 213.009 12.1311 213.795 11.9126C214.618 11.694 215.423 11.5847 216.209 11.5847C217.182 11.5847 218.005 11.6758 218.678 11.8579C219.389 12.0401 219.988 12.2769 220.475 12.5683L218.51 19.071C218.061 18.8525 217.556 18.6885 216.995 18.5792C216.471 18.4335 215.816 18.3607 215.03 18.3607C214.02 18.3607 213.103 18.561 212.28 18.9617C211.456 19.326 210.745 19.8543 210.146 20.5464C209.585 21.2386 209.136 22.0583 208.799 23.0055C208.5 23.9162 208.35 24.918 208.35 26.0109V39.1257H200.997V12.3497Z" fill="black"/>
</svg>
